<?xml version="1.0" encoding="UTF-8"?>
<svg xmlns="http://www.w3.org/2000/svg" version="1.1" viewBox="0 0 1024 1024">
  <defs>
    <style>
      .cls-1 {
        fill: #ccc;
      }
    </style>
  </defs>
  <!-- Generator: Adobe Illustrator 28.7.1, SVG Export Plug-In . SVG Version: 1.2.0 Build 142)  -->
  <g>
    <g id="Layer_1">
      <path class="cls-1" d="M47.1,350.3h0c5.4-10.8,14.1-18.8,25.5-24.9h0c11.4-6.1,25.5-8.7,41.7-8.7h0c25.5,0,45.7,9.4,60.5,27.6h0c15.5,18.2,22.9,47.1,22.9,87.4h0v205.7l131.8-308.6h67.9l15.5,291.1-2,16.8,137.1-307.9h78.7l-184.2,379.2h-122.4l-11.4-174.8-76,174.8H94.2l-17.5-276.3h0c-1.3-20.8-4.7-37.6-10.1-51.8h0c-5.4-13.4-12.1-23.5-20.2-28.9l.7-.7ZM616.5,350.3h0c11.4-22.9,32.3-34.3,63.2-34.3h0c30.9,0,53.8,8.7,67.9,26.9h0c14.1,17.5,21.5,47.1,21.5,88.1h0v205.7l139.8-308.6h68.6l-178.8,379.2h-134.5l-17.5-276.3h0c-1.3-20.2-4.7-37.6-10.1-51.1h0c-5.4-14.1-12.1-23.5-20.2-29.6Z"/>
    </g>
  </g>
</svg>