<?xml version="1.0" encoding="UTF-8"?>
<svg id="Layer_1" data-name="Layer 1" xmlns="http://www.w3.org/2000/svg" xmlns:xlink="http://www.w3.org/1999/xlink" version="1.1" viewBox="0 0 164.4 122">
  <defs>
    <style>
      .cls-1 {
        filter: url(#editing-extrusion);
      }

      .cls-2 {
        fill: #ccc;
        stroke-width: 0px;
      }
    </style>
    <filter id="editing-extrusion" x="-100%" y="-100%" width="300%" height="300%">
      <feFlood flood-color="#444" result="color1"/>
      <feConvolveMatrix divisor="1" in="SourceAlpha" kernelMatrix="1 0 0 0 0 0 0 0 0 1 0 0 0 0 0 0 0 0 1 0 0 0 0 0 0 0 0 1 0 0 0 0 0 0 0 0 1 0 0 0 0 0 0 0 0 1 0 0 0 0 0 0 0 0 1 0 0 0 0 0 0 0 0 1" order="8,8" result="extrude"/>
      <feComposite in="color1" in2="extrude" operator="in" result="comp-extrude"/>
      <feOffset dx="4" dy="4" in="comp-extrude" result="offset-extrude"/>
      <feMerge>
        <feMergeNode in="offset-extrude"/>
        <feMergeNode in="SourceGraphic"/>
      </feMerge>
    </filter>
  </defs>
  <g class="cls-1">
    <path class="cls-2" d="M13,34.8h0c.8-1.6,2.1-2.8,3.8-3.7h0c1.7-.9,3.8-1.3,6.2-1.3h0c3.8,0,6.8,1.4,9,4.1h0c2.3,2.7,3.4,7,3.4,13h0v30.6l19.6-45.9h10.1l2.3,43.3-.3,2.5,20.4-45.8h11.7l-27.4,56.4h-18.2l-1.7-26-11.3,26h-20.6l-2.6-41.1h0c-.2-3.1-.7-5.6-1.5-7.7h0c-.8-2-1.8-3.5-3-4.3ZM97.7,34.8h0c1.7-3.4,4.8-5.1,9.4-5.1h0c4.6,0,8,1.3,10.1,4h0c2.1,2.6,3.2,7,3.2,13.1h0v30.6l20.8-45.9h10.2l-26.6,56.4h-20l-2.6-41.1h0c-.2-3-.7-5.6-1.5-7.6h0c-.8-2.1-1.8-3.5-3-4.4Z"/>
  </g>
</svg>